<?xml version="1.0" encoding="UTF-8" standalone="no"?><!DOCTYPE svg PUBLIC "-//W3C//DTD SVG 1.1//EN" "http://www.w3.org/Graphics/SVG/1.1/DTD/svg11.dtd"><svg width="100%" height="100%" viewBox="0 0 250 250" version="1.1" xmlns="http://www.w3.org/2000/svg" xmlns:xlink="http://www.w3.org/1999/xlink" xml:space="preserve" xmlns:serif="http://www.serif.com/" style="fill-rule:evenodd;clip-rule:evenodd;stroke-linejoin:round;stroke-miterlimit:2;"><rect id="_60x60" serif:id="60x60" x="0" y="0" width="250" height="250" style="fill:none;"/><path d="M152.437,193.356l-72.916,-126.295c-2.875,-4.979 -1.167,-11.355 3.812,-14.23c4.979,-2.874 11.355,-1.166 14.23,3.813l72.916,126.295c2.875,4.979 1.167,11.355 -3.812,14.23c-4.979,2.874 -11.355,1.166 -14.23,-3.813Z" style="fill:#fff;"/><path d="M125.677,102.994l26.868,-46.537c2.815,-4.876 9.143,-6.5 14.122,-3.626c4.979,2.875 6.735,9.167 3.92,14.043l-32.757,56.737l-12.153,-20.617Z" style="fill:#fff;"/><path d="M124.323,147.006l-26.868,46.537c-2.815,4.876 -9.143,6.5 -14.122,3.626c-4.979,-2.875 -6.735,-9.167 -3.92,-14.043l32.757,-56.737l12.153,20.617Z" style="fill:#fff;"/></svg>