<?xml version="1.0" encoding="UTF-8" standalone="no"?><!DOCTYPE svg PUBLIC "-//W3C//DTD SVG 1.1//EN" "http://www.w3.org/Graphics/SVG/1.1/DTD/svg11.dtd"><svg width="100%" height="100%" viewBox="0 0 29 29" version="1.1" xmlns="http://www.w3.org/2000/svg" xmlns:xlink="http://www.w3.org/1999/xlink" xml:space="preserve" xmlns:serif="http://www.serif.com/" style="fill-rule:evenodd;clip-rule:evenodd;stroke-linejoin:round;stroke-miterlimit:2;"><rect id="_29x29" serif:id="29x29" x="0" y="0" width="29" height="29" style="fill:none;"/><path d="M14.656,11.23l2.827,-4.896c0.396,-0.687 1.3,-0.908 2.017,-0.494c0.717,0.414 0.977,1.307 0.581,1.994l-3.656,6.333l-1.769,-2.937Z" style="fill:#4b00ff;"/><path d="M14.344,17.77l-2.827,4.896c-0.396,0.687 -1.3,0.908 -2.017,0.494c-0.717,-0.414 -0.977,-1.307 -0.581,-1.994l3.656,-6.333l1.769,2.937Z" style="fill:#4b00ff;"/><path d="M20.049,21.111c0.414,0.717 0.168,1.635 -0.549,2.049c-0.717,0.414 -1.635,0.168 -2.049,-0.549l-8.5,-14.722c-0.414,-0.717 -0.168,-1.635 0.549,-2.049c0.717,-0.414 1.635,-0.168 2.049,0.549l8.5,14.722Z" style="fill:#4b00ff;"/></svg>